PathFileType	4	(X/Y/Z)	/Users/niels/Desktop/University/Third Semester/Perception and Action/Exam/Gymnastics Motion Tracking/Code for Gym Tracking/Analyzed Data/Webcam_Backflip/id1_2_trajectory_Sports2D/id1_2_trajectory_Sports2D_px_person00.trc
DataRate	CameraRate	NumFrames	NumMarkers	Units	OrigDataRate	OrigDataStartFrame	OrigNumFrames
29.87551867219917	29.87551867219917	10	22	m	29.87551867219917	180	241
Frame#	Time	Hip			RHip			RKnee			RAnkle			RBigToe			RSmallToe			RHeel			LHip			LKnee			LAnkle			LBigToe			LSmallToe			LHeel			Neck			Head			Nose			RShoulder			RElbow			RWrist			LShoulder			LElbow			LWrist		
		X1	Y1	Z1	X2	Y2	Z2	X3	Y3	Z3	X4	Y4	Z4	X5	Y5	Z5	X6	Y6	Z6	X7	Y7	Z7	X8	Y8	Z8	X9	Y9	Z9	X10	Y10	Z10	X11	Y11	Z11	X12	Y12	Z12	X13	Y13	Z13	X14	Y14	Z14	X15	Y15	Z15	X16	Y16	Z16	X17	Y17	Z17	X18	Y18	Z18	X19	Y19	Z19	X20	Y20	Z20	X21	Y21	Z21	X22	Y22	Z22
180	6.025	0.9445919096110631	-0.5971617681407287	0.0	0.9341021354952378	-0.5953940896776764	0.0	0.9383353325676042	-0.6997401872574558	0.0	0.922852972926207	-0.8176018280147808	0.0	0.9643236771533585	-0.8429132258150352	0.0	0.9545458278455738	-0.8449997026424461	0.0	0.9136777026776263	-0.8360585669529479	0.0	0.956219495209224	-0.5985241303514434	0.0	0.9386738746220807	-0.7014031972476934	0.0	0.915730160077648	-0.813853642767793	0.0	0.9593747522455833	-0.8370040144863546	0.0	0.9575496762891248	-0.8332398702662255	0.0	0.9040536914298328	-0.832431234439707	0.0	0.9487485103553945	-0.4327307275693742	0.0	0.9611447758948825	-0.3638551436109823	0.0	0.9620998189182443	-0.4049751435414236	0.0	0.9102459011933233	-0.4558605966760089	0.0	0.8931701663643288	-0.5287886858612612	0.0	0.9133289498665778	-0.6005498666729253	0.0	0.9716350571311421	-0.4613554234500612	0.0	0.9672691114098086	-0.5353651906180618	0.0	0.9820151919993274	-0.6034819007781264	0.0
181	6.058472222222222	0.9449779072364942	-0.5946763978995846	0.0	0.9343125444990998	-0.5931914412534379	0.0	0.9383350353878447	-0.6976613874232755	0.0	0.9227311648736158	-0.8151338418148988	0.0	0.9652313892219796	-0.8411794180607454	0.0	0.9550552412427248	-0.8432821905338082	0.0	0.9134524998791694	-0.8336608338244591	0.0	0.9564101453164393	-0.5962655043442439	0.0	0.9391584099532616	-0.6991800347187295	0.0	0.9156584270011362	-0.8110714885632859	0.0	0.9590939433283366	-0.8345017881385982	0.0	0.9575929050315882	-0.8307044468567649	0.0	0.9036351106335693	-0.829594693347171	0.0	0.9486818487622934	-0.42993543904667963	0.0	0.9607591029356757	-0.36087114767808254	0.0	0.9618640688897072	-0.40195385286088325	0.0	0.9103061813647854	-0.45309607878309194	0.0	0.8928883441316096	-0.5263239552756604	0.0	0.9132468268225212	-0.5974836484243254	0.0	0.9716383353276593	-0.45854076507023056	0.0	0.9664102080337562	-0.5327178608852395	0.0	0.9796335469379445	-0.6009736887149824	0.0
182	6.091944444444445	0.9452251299209763	-0.5921483515442876	0.0	0.9343509756570583	-0.5908095810595606	0.0	0.9381631791733799	-0.6956422275750593	0.0	0.9227055990481732	-0.8125379675304665	0.0	0.9660725319591036	-0.8392789893881606	0.0	0.9556109611745365	-0.8413179024185301	0.0	0.9132770048670253	-0.8311981138231355	0.0	0.9565160200787983	-0.5938650361895086	0.0	0.9395402503828582	-0.6969850143483958	0.0	0.9154633378596356	-0.808244630509564	0.0	0.9588888092870593	-0.8319087915680108	0.0	0.957558668418217	-0.8280994884667924	0.0	0.9031789183450454	-0.8267130757526155	0.0	0.9485672300431957	-0.4269518806145916	0.0	0.9604027516681675	-0.3577646081370631	0.0	0.961719154277889	-0.39878255623467934	0.0	0.9103983145256276	-0.4501234354404841	0.0	0.8925907886827488	-0.5235107367476131	0.0	0.913177040851187	-0.594008064146084	0.0	0.9716027019555606	-0.45548091331914964	0.0	0.9655126157270572	-0.5298223256054765	0.0	0.9777944710170368	-0.5980110612846083	0.0
183	6.125416666666667	0.9454137224463031	-0.5898328171985117	0.0	0.9343371361492757	-0.5884273275016297	0.0	0.9378730088337417	-0.6938456779034894	0.0	0.9227304298827183	-0.810091612404975	0.0	0.9667916301979267	-0.8374187254479987	0.0	0.9561624582586383	-0.8393542184656619	0.0	0.9131682648974266	-0.828932848648213	0.0	0.9566812295272354	-0.5915128599030168	0.0	0.939835887315859	-0.6949967437232817	0.0	0.9152716822757169	-0.8056806095290555	0.0	0.9588416844307297	-0.829532269579557	0.0	0.9575508669764498	-0.8257386559033604	0.0	0.9027830616501751	-0.8241341211774913	0.0	0.9484406241812156	-0.4240750631917635	0.0	0.9600890639165512	-0.35486197643086453	0.0	0.961660303026884	-0.39579777758078444	0.0	0.9104893466255485	-0.4472572629245896	0.0	0.8923532154417336	-0.5206039631757002	0.0	0.9132208316314322	-0.5905092270040149	0.0	0.9715773254339459	-0.45248040037564247	0.0	0.9647270678380105	-0.5269012271958975	0.0	0.9765875090473526	-0.5948666272626784	0.0
184	6.158888888888889	0.9456223893921821	-0.587899197420899	0.0	0.9343526910742723	-0.5862210310689935	0.0	0.9375443541765972	-0.692355020251899	0.0	0.9227092115524804	-0.8080199300182693	0.0	0.9672784177561387	-0.8358204626537448	0.0	0.9566164278046606	-0.8376538531589744	0.0	0.9130892522604944	-0.827051222753803	0.0	0.9569960436581392	-0.5893496108392033	0.0	0.9401046582139072	-0.6933043399797695	0.0	0.9151958892770714	-0.803610203470991	0.0	0.9589592678365466	-0.8276523742785089	0.0	0.957654699079549	-0.8239010472049085	0.0	0.9024997881943008	-0.8220757797630217	0.0	0.948342948906685	-0.4215797353314871	0.0	0.9598516455691066	-0.35240429169227944	0.0	0.961646988078451	-0.3932734795723029	0.0	0.9105413111335952	-0.44479794094403663	0.0	0.892200655781699	-0.5179266664355718	0.0	0.9134388651130566	-0.5873913712732172	0.0	0.9715672218505326	-0.44986306763066	0.0	0.9641695562179081	-0.5242222362246354	0.0	0.9760118047560236	-0.5918881546693122	0.0
185	6.192361111111111	0.9458786047544845	-0.5864867124643921	0.0	0.9344248853462485	-0.5844512728730241	0.0	0.937242045594979	-0.6912476528574771	0.0	0.9225730234814299	-0.8064919343241174	0.0	0.9674559492445056	-0.8346669286938391	0.0	0.9568897305472096	-0.8364285575606972	0.0	0.9129892381259918	-0.8256684682587073	0.0	0.9574320613569515	-0.5875857045376093	0.0	0.9403735101001811	-0.6919943695917747	0.0	0.9152879468907587	-0.802196097311793	0.0	0.9592075487932067	-0.8264370312401994	0.0	0.9578893681419917	-0.8227630078570288	0.0	0.9023487789412467	-0.8206696791907442	0.0	0.9483026803193904	-0.41971685557716004	0.0	0.9597086647566715	-0.3505712304719638	0.0	0.9616717062512773	-0.39139702600915727	0.0	0.9105429133112262	-0.4429810779335392	0.0	0.8921337454035968	-0.5158187325794404	0.0	0.913856091566817	-0.5849746801086637	0.0	0.971546519975144	-0.44791025635810916	0.0	0.9639017604232069	-0.5220896768998358	0.0	0.9760440021015206	-0.5894344820316815	0.0
186	6.225833333333333	0.9461465767493772	-0.5856880147796493	0.0	0.9345356896306701	-0.5833906209373363	0.0	0.9369955325846154	-0.6905963842460224	0.0	0.9223211119455742	-0.8056250994943672	0.0	0.967292905105769	-0.8340695135446269	0.0	0.9568858588307051	-0.8358185134786021	0.0	0.9128360486676631	-0.8248495859329684	0.0	0.9578949452445846	-0.5864382365051836	0.0	0.9406193656431162	-0.6911442067567585	0.0	0.9155150964305958	-0.8015023035202458	0.0	0.9595054538223297	-0.825923810841858	0.0	0.9581582783602688	-0.8223773118317941	0.0	0.9023212230522865	-0.8199511071471601	0.0	0.9483064294108474	-0.41868602720581166	0.0	0.959694677160877	-0.3494722313043039	0.0	0.961784535838229	-0.39029913880516587	0.0	0.9105188826333731	-0.4419687453423029	0.0	0.8921531442741187	-0.5145401389702773	0.0	0.9144485333053689	-0.5834703498592778	0.0	0.9714716191359157	-0.44678952245999726	0.0	0.9639423246954111	-0.5207603318582886	0.0	0.9766735301891912	-0.5878197257647692	0.0
187	6.259305555555556	0.9463470462534314	-0.5855032836996259	0.0	0.9346149345610606	-0.5831615769238969	0.0	0.9368142098352381	-0.690415031592667	0.0	0.9220188863291737	-0.8055073188769104	0.0	0.9667752632378177	-0.8340732741835793	0.0	0.9564931179459328	-0.8358945179559235	0.0	0.9126212200030538	-0.8246428010134004	0.0	0.9583024216925147	-0.5859735454337703	0.0	0.940811295370535	-0.6907624733992394	0.0	0.9157589467171618	-0.8014859852739715	0.0	0.9596996802126292	-0.8260264693013053	0.0	0.9582544713611331	-0.8226636687157625	0.0	0.9023617827951372	-0.8198572537641512	0.0	0.9483020860090416	-0.41859831884147125	0.0	0.959880896271438	-0.3491327658196921	0.0	0.9620286835977305	-0.39008484841707636	0.0	0.9105114819812344	-0.44185474123726737	0.0	0.892263546808824	-0.5142178914000403	0.0	0.9151380547860861	-0.5830061731574854	0.0	0.9713038003468937	-0.44655791145339463	0.0	0.9642711161777373	-0.5203696942180966	0.0	0.9778736552036867	-0.58724256851293	0.0
188	6.292777777777778	0.9463997466416612	-0.5858534080151965	0.0	0.9345415389325953	-0.583690138442374	0.0	0.936690334068436	-0.6906461150522499	0.0	0.9217422326175932	-0.8061636087667616	0.0	0.9658970442513938	-0.8346619044455297	0.0	0.9556372910352183	-0.8366357640933144	0.0	0.9123476272385465	-0.8250687975156448	0.0	0.958606345545579	-0.586081079696116	0.0	0.9409525355147789	-0.6907851633035903	0.0	0.91586816043344	-0.8020267306854862	0.0	0.9596223628001588	-0.8265773677393321	0.0	0.9579688982332805	-0.8234416599476283	0.0	0.9023788781622987	-0.8202629198559636	0.0	0.948231231366725	-0.419463509621282	0.0	0.9603320130527409	-0.3495135373641085	0.0	0.9623775090181556	-0.39081889930817787	0.0	0.9105408441432141	-0.4426639926186802	0.0	0.8924701493916504	-0.5148772763796874	0.0	0.9158313475161817	-0.5836306362012559	0.0	0.9710411191081489	-0.44721106815848277	0.0	0.9648254002999214	-0.5209306822216296	0.0	0.9795625347794051	-0.587722100492876	0.0
189	6.32625	0.9462644255184922	-0.5866547639604301	0.0	0.9342098735224434	-0.5848152598148526	0.0	0.9365923282999994	-0.6912297012542139	0.0	0.9215309270910447	-0.8075074663937849	0.0	0.9647254499417134	-0.8357584309776843	0.0	0.9543855543414584	-0.8379317053678839	0.0	0.9120422128533281	-0.8260876003837028	0.0	0.9587667396969756	-0.5866275600707881	0.0	0.9410749326279297	-0.691139620781425	0.0	0.9157398816848511	-0.8029818000647152	0.0	0.9591813484958979	-0.8274059645986738	0.0	0.9572016052129251	-0.8245188617695541	0.0	0.9023026775287037	-0.821049255259672	0.0	0.9480634434544621	-0.421177399597012	0.0	0.9610412088762561	-0.35054878047753224	0.0	0.9627489956999041	-0.39247695131836957	0.0	0.9105933201358113	-0.44432875681590545	0.0	0.8927753319323722	-0.5164524667223342	0.0	0.9164721551073723	-0.5852761912070706	0.0	0.9707213707052418	-0.44869619387907195	0.0	0.9655160795943148	-0.5223706473624954	0.0	0.9816031013887222	-0.5891241278068253	0.0
